<svg width="160" height="160" viewBox="0 0 160 160" fill="none" xmlns="http://www.w3.org/2000/svg">
<path d="M50.2722 95.2H29.1429C27.4071 95.2 26 93.7929 26 92.0572V66.6786C26 64.9428 27.4071 63.5357 29.1429 63.5357H50.2722M50.2722 95.2V63.5357M50.2722 95.2L95.8453 123.422C97.9391 124.718 100.643 123.213 100.643 120.75V86.7143V33.1622C100.643 30.5954 97.7325 29.111 95.6547 30.6181L50.2722 63.5357" stroke="#E94560" stroke-width="4"/>
<path d="M110.461 62.3572C117.925 68.6429 118.711 84.3572 110.461 90.6429" stroke="#E94560" stroke-width="3.92857" stroke-linecap="round"/>
<path d="M125.98 49.7856C139.73 62.7499 138.944 90.2499 125.98 103.214" stroke="#E94560" stroke-width="3.92857" stroke-linecap="round"/>
<circle cx="80" cy="80" r="78" stroke="#E94560" stroke-width="4"/>
</svg>
