<svg width="134" height="146" viewBox="0 0 134 146" fill="none" xmlns="http://www.w3.org/2000/svg">
<path d="M131.5 81C131.5 115.447 102.694 143.5 67 143.5C31.3057 143.5 2.5 115.447 2.5 81C2.5 46.5531 31.3057 18.5 67 18.5C102.694 18.5 131.5 46.5531 131.5 81Z" stroke="currentColor" stroke-width="5"/>
<path d="M67 37V80.7576H105" stroke="currentColor" stroke-width="5.75758" stroke-linecap="round"/>
<path d="M40.2294 8.90761C18.8922 4.29287 3.43822 17.8424 4.01566 36.7008C4.06272 38.2377 5.82003 38.986 7.04311 38.0542L40.905 12.2546C42.1997 11.2682 41.8203 9.25167 40.2294 8.90761Z" stroke="currentColor" stroke-width="5"/>
<path d="M130.689 34.8256C128.674 13.0882 111.105 2.42388 93.2925 8.64544C91.8409 9.15248 91.6556 11.0535 92.9122 11.9397L127.7 36.4764C129.03 37.4145 130.839 36.4462 130.689 34.8256Z" stroke="currentColor" stroke-width="5"/>
</svg>
