<svg width="658" height="618" viewBox="0 0 658 618" fill="none" xmlns="http://www.w3.org/2000/svg">
<path d="M208.004 68.7205L187.5 67.5L156.5 79L168.943 148.324C169.979 154.097 170.5 159.95 170.5 165.814V198L166 266.5L210.5 198L232.5 184L263 172.5L292 180.5L286.538 163.538C283.859 155.221 280.02 147.323 275.135 140.079C270.462 133.15 267.707 125.107 267.151 116.768L265 84.5L249.436 78.1427C236.235 72.751 222.238 69.5677 208.004 68.7205Z" fill="url(#paint0_linear_108_943)"/>
<path d="M273 231L288.012 248.681C292.762 254.275 299.73 257.5 307.069 257.5H319C327.837 257.5 335 250.337 335 241.5V205.761C335 200.706 336.532 195.77 339.395 191.603L391 116.5L347 144L292 187.5L288.453 188.356C269.511 192.928 261.384 215.354 273 231Z" fill="url(#paint1_linear_108_943)"/>
<path d="M237 396L217.5 360.5L200.5 327L192.5 335L187.5 305.5L178.5 320.5L181 285.5L227.5 266.5L259.5 308L295.5 327L350 335L363 386.5L347 415L288.5 396V456L255 407L248.5 418L237 396Z" fill="url(#paint2_linear_108_943)"/>
<path d="M374 295L330.5 262L343 254.5L419.5 295H374Z" fill="url(#paint3_linear_108_943)"/>
<path d="M432.5 287.5L347 245V225.5L466.5 274.5L432.5 287.5Z" fill="url(#paint4_linear_108_943)"/>
<path d="M474.5 266.5L347 214V198L503.5 245L474.5 266.5Z" fill="url(#paint5_linear_108_943)"/>
<path d="M510.5 234L354.5 187.5L363 176L535 202.5L510.5 234Z" fill="url(#paint6_linear_108_943)"/>
<path d="M542.5 190.5L369 165.5L380 151L574 146.5L542.5 190.5Z" fill="url(#paint7_linear_108_943)"/>
<path d="M585.5 129.5L386 144L391 133.5L611.5 94L585.5 129.5Z" fill="url(#paint8_linear_108_943)"/>
<path d="M617 79L393.5 127L401 116.5L640.5 43L617 79Z" fill="url(#paint9_linear_108_943)"/>
<path d="M658 0L405 109L644 33L658 0Z" fill="url(#paint10_linear_108_943)"/>
<path d="M210.5 225.5L170.5 279.5L237 245L268 287.5L309 311L347 320.5L330.5 274.5L309 279.5L268 245L237 198L210.5 225.5Z" fill="url(#paint11_linear_108_943)"/>
<path d="M471.853 617.5L295.5 412L354.5 426.5L369 407L446.5 544L471.853 617.5Z" fill="url(#paint12_linear_108_943)"/>
<path d="M387.5 529L301 461V433.5L387.5 529Z" fill="url(#paint13_linear_108_943)"/>
<path d="M217.5 415L248.5 438.5L252 453L248.5 461L232 467.5L223 443L232 453H252L223 426.5L210.5 438.5V461L200.5 438.5L217.5 415Z" fill="url(#paint14_linear_108_943)"/>
<path d="M57 79L156.5 113.5L147.5 83L46.5 67.5H0L57 79Z" fill="url(#paint15_linear_108_943)"/>
<defs>
<linearGradient id="paint0_linear_108_943" x1="47.5" y1="16" x2="443" y2="671.5" gradientUnits="userSpaceOnUse">
<stop stop-color="#BBF261"/>
<stop offset="0.515625" stop-color="#9FE5D4" stop-opacity="0.484375"/>
<stop offset="1" stop-color="#CB8FD5"/>
</linearGradient>
<linearGradient id="paint1_linear_108_943" x1="47.5" y1="16" x2="443" y2="671.5" gradientUnits="userSpaceOnUse">
<stop stop-color="#BBF261"/>
<stop offset="0.515625" stop-color="#9FE5D4" stop-opacity="0.484375"/>
<stop offset="1" stop-color="#CB8FD5"/>
</linearGradient>
<linearGradient id="paint2_linear_108_943" x1="47.5" y1="16" x2="443" y2="671.5" gradientUnits="userSpaceOnUse">
<stop stop-color="#BBF261"/>
<stop offset="0.515625" stop-color="#9FE5D4" stop-opacity="0.484375"/>
<stop offset="1" stop-color="#CB8FD5"/>
</linearGradient>
<linearGradient id="paint3_linear_108_943" x1="47.5" y1="16" x2="443" y2="671.5" gradientUnits="userSpaceOnUse">
<stop stop-color="#BBF261"/>
<stop offset="0.515625" stop-color="#9FE5D4" stop-opacity="0.484375"/>
<stop offset="1" stop-color="#CB8FD5"/>
</linearGradient>
<linearGradient id="paint4_linear_108_943" x1="47.5" y1="16" x2="443" y2="671.5" gradientUnits="userSpaceOnUse">
<stop stop-color="#BBF261"/>
<stop offset="0.515625" stop-color="#9FE5D4" stop-opacity="0.484375"/>
<stop offset="1" stop-color="#CB8FD5"/>
</linearGradient>
<linearGradient id="paint5_linear_108_943" x1="47.5" y1="16" x2="443" y2="671.5" gradientUnits="userSpaceOnUse">
<stop stop-color="#BBF261"/>
<stop offset="0.515625" stop-color="#9FE5D4" stop-opacity="0.484375"/>
<stop offset="1" stop-color="#CB8FD5"/>
</linearGradient>
<linearGradient id="paint6_linear_108_943" x1="47.5" y1="16" x2="443" y2="671.5" gradientUnits="userSpaceOnUse">
<stop stop-color="#BBF261"/>
<stop offset="0.515625" stop-color="#9FE5D4" stop-opacity="0.484375"/>
<stop offset="1" stop-color="#CB8FD5"/>
</linearGradient>
<linearGradient id="paint7_linear_108_943" x1="47.5" y1="16" x2="443" y2="671.5" gradientUnits="userSpaceOnUse">
<stop stop-color="#BBF261"/>
<stop offset="0.515625" stop-color="#9FE5D4" stop-opacity="0.484375"/>
<stop offset="1" stop-color="#CB8FD5"/>
</linearGradient>
<linearGradient id="paint8_linear_108_943" x1="47.5" y1="16" x2="443" y2="671.5" gradientUnits="userSpaceOnUse">
<stop stop-color="#BBF261"/>
<stop offset="0.515625" stop-color="#9FE5D4" stop-opacity="0.484375"/>
<stop offset="1" stop-color="#CB8FD5"/>
</linearGradient>
<linearGradient id="paint9_linear_108_943" x1="47.5" y1="16" x2="443" y2="671.5" gradientUnits="userSpaceOnUse">
<stop stop-color="#BBF261"/>
<stop offset="0.515625" stop-color="#9FE5D4" stop-opacity="0.484375"/>
<stop offset="1" stop-color="#CB8FD5"/>
</linearGradient>
<linearGradient id="paint10_linear_108_943" x1="47.5" y1="16" x2="443" y2="671.5" gradientUnits="userSpaceOnUse">
<stop stop-color="#BBF261"/>
<stop offset="0.515625" stop-color="#9FE5D4" stop-opacity="0.484375"/>
<stop offset="1" stop-color="#CB8FD5"/>
</linearGradient>
<linearGradient id="paint11_linear_108_943" x1="47.5" y1="16" x2="443" y2="671.5" gradientUnits="userSpaceOnUse">
<stop stop-color="#BBF261"/>
<stop offset="0.515625" stop-color="#9FE5D4" stop-opacity="0.484375"/>
<stop offset="1" stop-color="#CB8FD5"/>
</linearGradient>
<linearGradient id="paint12_linear_108_943" x1="47.5" y1="16" x2="443" y2="671.5" gradientUnits="userSpaceOnUse">
<stop stop-color="#BBF261"/>
<stop offset="0.515625" stop-color="#9FE5D4" stop-opacity="0.484375"/>
<stop offset="1" stop-color="#CB8FD5"/>
</linearGradient>
<linearGradient id="paint13_linear_108_943" x1="47.5" y1="16" x2="443" y2="671.5" gradientUnits="userSpaceOnUse">
<stop stop-color="#BBF261"/>
<stop offset="0.515625" stop-color="#9FE5D4" stop-opacity="0.484375"/>
<stop offset="1" stop-color="#CB8FD5"/>
</linearGradient>
<linearGradient id="paint14_linear_108_943" x1="47.5" y1="16" x2="443" y2="671.5" gradientUnits="userSpaceOnUse">
<stop stop-color="#BBF261"/>
<stop offset="0.515625" stop-color="#9FE5D4" stop-opacity="0.484375"/>
<stop offset="1" stop-color="#CB8FD5"/>
</linearGradient>
<linearGradient id="paint15_linear_108_943" x1="47.5" y1="16" x2="443" y2="671.5" gradientUnits="userSpaceOnUse">
<stop stop-color="#BBF261"/>
<stop offset="0.515625" stop-color="#9FE5D4" stop-opacity="0.484375"/>
<stop offset="1" stop-color="#CB8FD5"/>
</linearGradient>
</defs>
</svg>
